<?xml version="1.0" encoding="UTF-8" ?>
<!DOCTYPE svg PUBLIC "-//W3C//DTD SVG 1.1//EN" "http://www.w3.org/Graphics/SVG/1.1/DTD/svg11.dtd">
<svg width="1000pt" height="1000pt" viewBox="0 0 1000 1000" version="1.1" xmlns="http://www.w3.org/2000/svg">
<g id="#f3ba2fff">
<path fill="#f3ba2f" opacity="1.00" d=" M 192.85 307.13 C 295.26 204.78 397.60 102.37 500.00 0.01 C 602.45 102.43 704.90 204.84 807.29 307.31 C 769.62 344.96 731.98 382.64 694.30 420.28 C 629.53 355.52 564.78 290.75 500.00 226.01 C 435.29 290.72 370.56 355.41 305.88 420.15 C 268.09 382.60 230.43 344.89 192.85 307.13 Z" />
<path fill="#f3ba2f" opacity="1.00" d=" M 385.28 499.98 C 423.51 461.74 461.75 423.50 500.01 385.29 C 538.25 423.52 576.49 461.75 614.71 500.00 C 576.49 538.25 538.25 576.48 500.00 614.71 C 461.76 576.48 423.52 538.23 385.28 499.98 Z" />
<path fill="#f3ba2f" opacity="1.00" d=" M 0.01 500.00 C 37.67 462.32 75.34 424.66 113.01 386.99 C 150.68 424.64 188.34 462.31 226.00 499.98 C 188.34 537.65 150.68 575.32 113.00 612.97 C 75.33 575.32 37.68 537.65 0.01 500.00 Z" />
<path fill="#f3ba2f" opacity="1.00" d=" M 774.01 500.05 C 811.67 462.38 849.34 424.72 887.00 387.05 C 918.34 418.36 949.65 449.70 980.98 481.02 C 987.38 487.11 993.21 493.90 1000.00 499.51 L 1000.00 500.48 C 994.79 504.74 990.38 509.92 985.50 514.55 C 952.66 547.38 919.85 580.23 887.00 613.04 C 849.33 575.38 811.67 537.71 774.01 500.05 Z" />
<path fill="#f3ba2f" opacity="1.00" d=" M 192.65 692.63 C 230.38 655.03 268.07 617.41 305.80 579.81 C 370.54 644.53 435.26 709.27 500.00 773.99 C 564.79 709.25 629.51 644.44 694.34 579.73 C 731.99 617.39 769.67 655.01 807.36 692.63 C 704.94 795.12 602.46 897.55 500.00 999.99 C 397.54 897.54 295.08 795.10 192.65 692.63 Z" />
</g>
</svg>
