<?xml version="1.0" encoding="UTF-8" ?>
<!DOCTYPE svg PUBLIC "-//W3C//DTD SVG 1.1//EN" "http://www.w3.org/Graphics/SVG/1.1/DTD/svg11.dtd">
<svg width="280pt" height="280pt" viewBox="0 0 280 280" version="1.1" xmlns="http://www.w3.org/2000/svg">
<g id="#ff0201ff">
<path fill="#ff0201" opacity="1.00" d=" M 57.12 29.60 C 93.97 29.65 130.82 29.63 167.67 29.61 C 160.71 57.18 154.16 84.85 147.06 112.38 C 128.73 112.35 110.41 112.40 92.08 112.35 C 84.87 140.45 77.95 168.63 70.89 196.77 C 70.30 198.76 69.26 200.60 68.88 202.66 C 65.12 218.61 61.10 234.51 57.03 250.38 C 38.70 250.36 20.37 250.37 2.04 250.37 C 14.28 201.40 26.39 152.40 38.71 103.45 C 44.96 78.86 50.75 54.16 57.12 29.60 Z" />
</g>
<g id="#125bffff">
<path fill="#125bff" opacity="1.00" d=" M 214.36 62.59 C 217.10 51.61 219.89 40.65 222.58 29.66 C 240.92 29.60 259.26 29.67 277.60 29.62 C 259.45 103.24 240.82 176.73 222.67 250.35 C 185.77 250.38 148.87 250.36 111.97 250.36 C 119.00 222.83 125.61 195.20 132.55 167.64 C 150.92 167.61 169.30 167.67 187.68 167.62 C 194.86 139.03 202.00 110.43 209.14 81.84 C 211.70 75.67 212.61 69.00 214.36 62.59 Z" />
</g>
</svg>
