<?xml version="1.0" encoding="UTF-8" ?>
<!DOCTYPE svg PUBLIC "-//W3C//DTD SVG 1.1//EN" "http://www.w3.org/Graphics/SVG/1.1/DTD/svg11.dtd">
<svg width="260pt" height="180pt" viewBox="0 0 260 180" version="1.1" xmlns="http://www.w3.org/2000/svg">
<g id="#ffffffff">
</g>
<g id="#222535ff">
<path fill="#222535" opacity="1.00" d=" M 121.53 40.80 C 133.45 38.71 146.14 41.19 156.43 47.55 C 167.52 54.77 176.03 66.26 178.80 79.29 C 182.13 94.42 178.10 111.10 167.80 122.73 C 159.91 131.20 149.46 137.91 137.79 139.34 C 126.37 141.11 114.10 139.15 104.35 132.76 C 93.82 126.59 85.55 116.49 82.23 104.69 C 77.75 90.42 80.07 74.08 88.79 61.87 C 96.27 50.78 108.27 42.87 121.53 40.80 M 87.59 74.56 C 87.65 81.38 87.44 88.21 87.67 95.02 C 87.95 101.59 96.00 106.03 101.72 102.73 C 107.56 99.99 108.66 91.27 104.00 86.97 C 101.00 83.85 96.17 83.72 92.41 85.42 C 92.44 81.80 92.41 78.18 92.40 74.56 C 90.80 74.56 89.20 74.56 87.59 74.56 M 133.43 74.53 C 133.46 81.36 133.28 88.20 133.48 95.03 C 133.68 101.41 141.28 105.84 146.97 103.01 C 153.14 100.59 154.67 91.57 149.93 87.08 C 146.95 83.97 142.09 83.53 138.31 85.34 C 138.31 81.75 138.27 78.15 138.30 74.55 C 136.68 74.54 135.05 74.53 133.43 74.53 M 166.18 74.51 C 166.24 77.78 166.25 81.06 165.87 84.32 C 165.30 84.33 164.14 84.35 163.57 84.36 C 163.59 85.93 163.62 87.51 163.66 89.09 C 164.25 89.19 165.43 89.39 166.02 89.49 C 166.38 94.27 166.06 99.07 166.19 103.85 C 167.86 103.80 169.54 103.75 171.22 103.70 C 171.25 98.90 171.25 94.10 171.23 89.30 C 171.81 89.29 172.97 89.27 173.55 89.26 C 173.58 87.59 173.60 85.91 173.63 84.24 C 173.03 84.25 171.84 84.28 171.24 84.30 C 171.25 81.04 171.24 77.79 171.22 74.54 C 169.54 74.52 167.86 74.51 166.18 74.51 M 155.73 80.10 C 156.20 82.48 158.73 81.66 160.40 81.40 C 160.33 80.55 160.19 78.85 160.12 78.00 C 158.56 76.29 154.94 77.52 155.73 80.10 M 110.37 84.09 C 110.85 89.44 108.88 95.70 112.72 100.20 C 115.68 103.82 120.91 104.31 125.01 102.49 C 125.01 105.57 123.05 108.00 120.06 108.72 C 120.08 110.33 120.11 111.93 120.16 113.54 C 124.66 113.01 129.09 109.80 129.60 105.07 C 129.93 98.08 129.62 91.07 129.74 84.06 C 128.09 84.08 126.44 84.10 124.79 84.12 C 124.70 87.90 125.10 91.72 124.51 95.47 C 123.33 99.46 116.93 99.66 115.65 95.59 C 114.90 91.82 115.45 87.93 115.32 84.11 C 113.67 84.10 112.02 84.09 110.37 84.09 M 155.62 84.42 C 155.70 90.87 155.63 97.32 155.68 103.78 C 157.28 103.76 158.89 103.75 160.50 103.73 C 160.48 97.29 160.51 90.84 160.47 84.40 C 158.85 84.40 157.23 84.41 155.62 84.42 Z" />
<path fill="#222535" opacity="1.00" d=" M 95.47 89.57 C 98.40 88.39 102.30 90.57 101.96 93.95 C 102.57 98.28 96.27 100.51 93.67 97.29 C 91.43 94.92 92.47 90.71 95.47 89.57 Z" />
<path fill="#222535" opacity="1.00" d=" M 141.40 89.55 C 144.35 88.50 148.06 90.65 147.80 93.98 C 148.12 97.56 143.81 99.97 140.77 98.30 C 137.19 96.66 137.55 90.62 141.40 89.55 Z" />
</g>
<g id="#fcb11eff">
<path fill="#fcb11e" opacity="1.00" d=" M 87.59 74.56 C 89.20 74.56 90.80 74.56 92.40 74.56 C 92.41 78.18 92.44 81.80 92.41 85.42 C 96.17 83.72 101.00 83.85 104.00 86.97 C 108.66 91.27 107.56 99.99 101.72 102.73 C 96.00 106.03 87.95 101.59 87.67 95.02 C 87.44 88.21 87.65 81.38 87.59 74.56 M 95.47 89.57 C 92.47 90.71 91.43 94.92 93.67 97.29 C 96.27 100.51 102.57 98.28 101.96 93.95 C 102.30 90.57 98.40 88.39 95.47 89.57 Z" />
<path fill="#fcb11e" opacity="1.00" d=" M 133.43 74.53 C 135.05 74.53 136.68 74.54 138.30 74.55 C 138.27 78.15 138.31 81.75 138.31 85.34 C 142.09 83.53 146.95 83.97 149.93 87.08 C 154.67 91.57 153.14 100.59 146.97 103.01 C 141.28 105.84 133.68 101.41 133.48 95.03 C 133.28 88.20 133.46 81.36 133.43 74.53 M 141.40 89.55 C 137.55 90.62 137.19 96.66 140.77 98.30 C 143.81 99.97 148.12 97.56 147.80 93.98 C 148.06 90.65 144.35 88.50 141.40 89.55 Z" />
<path fill="#fcb11e" opacity="1.00" d=" M 166.18 74.51 C 167.86 74.51 169.54 74.52 171.22 74.54 C 171.24 77.79 171.25 81.04 171.24 84.30 C 171.84 84.28 173.03 84.25 173.63 84.24 C 173.60 85.91 173.58 87.59 173.55 89.26 C 172.97 89.27 171.81 89.29 171.23 89.30 C 171.25 94.10 171.25 98.90 171.22 103.70 C 169.54 103.75 167.86 103.80 166.19 103.85 C 166.06 99.07 166.38 94.27 166.02 89.49 C 165.43 89.39 164.25 89.19 163.66 89.09 C 163.62 87.51 163.59 85.93 163.57 84.36 C 164.14 84.35 165.30 84.33 165.87 84.32 C 166.25 81.06 166.24 77.78 166.18 74.51 Z" />
<path fill="#fcb11e" opacity="1.00" d=" M 155.73 80.10 C 154.94 77.52 158.56 76.29 160.12 78.00 C 160.19 78.85 160.33 80.55 160.40 81.40 C 158.73 81.66 156.20 82.48 155.73 80.10 Z" />
<path fill="#fcb11e" opacity="1.00" d=" M 110.37 84.09 C 112.02 84.09 113.67 84.10 115.32 84.11 C 115.45 87.93 114.90 91.82 115.65 95.59 C 116.93 99.66 123.33 99.46 124.51 95.47 C 125.10 91.72 124.70 87.90 124.79 84.12 C 126.44 84.10 128.09 84.08 129.74 84.06 C 129.62 91.07 129.93 98.08 129.60 105.07 C 129.09 109.80 124.66 113.01 120.16 113.54 C 120.11 111.93 120.08 110.33 120.06 108.72 C 123.05 108.00 125.01 105.57 125.01 102.49 C 120.91 104.31 115.68 103.82 112.72 100.20 C 108.88 95.70 110.85 89.44 110.37 84.09 Z" />
<path fill="#fcb11e" opacity="1.00" d=" M 155.62 84.42 C 157.23 84.41 158.85 84.40 160.47 84.40 C 160.51 90.84 160.48 97.29 160.50 103.73 C 158.89 103.75 157.28 103.76 155.68 103.78 C 155.63 97.32 155.70 90.87 155.62 84.42 Z" />
</g>
</svg>
