<?xml version="1.0" encoding="UTF-8" ?>
<!DOCTYPE svg PUBLIC "-//W3C//DTD SVG 1.1//EN" "http://www.w3.org/Graphics/SVG/1.1/DTD/svg11.dtd">
<svg width="512pt" height="512pt" viewBox="0 0 512 512" version="1.1" xmlns="http://www.w3.org/2000/svg">
<g id="#ffffffff">
</g>
<g id="#003398ff">
<path fill="#003398" opacity="1.00" d=" M 278.82 88.47 C 290.62 88.67 302.01 92.51 312.59 97.49 C 333.76 107.87 353.01 123.09 366.23 142.77 C 371.02 150.30 374.85 158.88 374.79 167.96 C 374.79 220.04 374.79 272.12 374.78 324.20 C 362.92 324.00 351.46 320.12 340.82 315.10 C 319.89 304.80 300.87 289.77 287.69 270.38 C 282.78 262.81 278.83 254.17 278.83 244.98 C 278.81 192.81 278.82 140.64 278.82 88.47 Z" />
</g>
<g id="#13dafdff">
<path fill="#13dafd" opacity="1.00" d=" M 137.51 187.85 C 147.47 188.01 157.17 190.83 166.31 194.63 C 178.44 199.76 189.71 206.83 199.94 215.10 C 209.84 223.18 218.85 232.52 225.70 243.36 C 230.05 250.50 233.48 258.55 233.46 267.05 C 233.48 319.23 233.47 371.41 233.46 423.60 C 221.87 423.38 210.66 419.68 200.23 414.83 C 178.76 404.41 159.24 389.02 145.92 369.06 C 141.16 361.56 137.41 353.01 137.50 343.97 C 137.50 291.93 137.49 239.89 137.51 187.85 Z" />
</g>
</svg>
