<svg xmlns="http://www.w3.org/2000/svg" width="578" height="578" viewBox="0 0 578 578"><g transform="translate(-50 -50)"><rect width="2" height="2" transform="translate(50 50)"/><rect width="2" height="2" transform="translate(50 82)"/><rect width="2" height="2" transform="translate(50 114)"/><rect width="2" height="2" transform="translate(50 146)"/><rect width="2" height="2" transform="translate(50 178)"/><rect width="2" height="2" transform="translate(50 210)"/><rect width="2" height="2" transform="translate(50 242)"/><rect width="2" height="2" transform="translate(50 274)"/><rect width="2" height="2" transform="translate(50 306)"/><rect width="2" height="2" transform="translate(50 338)"/><rect width="2" height="2" transform="translate(50 370)"/><rect width="2" height="2" transform="translate(50 402)"/><rect width="2" height="2" transform="translate(50 434)"/><rect width="2" height="2" transform="translate(50 466)"/><rect width="2" height="2" transform="translate(50 498)"/><rect width="2" height="2" transform="translate(50 530)"/><rect width="2" height="2" transform="translate(50 562)"/><rect width="2" height="2" transform="translate(50 594)"/><rect width="2" height="2" transform="translate(50 626)"/><rect width="2" height="2" transform="translate(82 50)"/><rect width="2" height="2" transform="translate(82 82)"/><rect width="2" height="2" transform="translate(82 114)"/><rect width="2" height="2" transform="translate(82 146)"/><rect width="2" height="2" transform="translate(82 178)"/><rect width="2" height="2" transform="translate(82 210)"/><rect width="2" height="2" transform="translate(82 242)"/><rect width="2" height="2" transform="translate(82 274)"/><rect width="2" height="2" transform="translate(82 306)"/><rect width="2" height="2" transform="translate(82 338)"/><rect width="2" height="2" transform="translate(82 370)"/><rect width="2" height="2" transform="translate(82 402)"/><rect width="2" height="2" transform="translate(82 434)"/><rect width="2" height="2" transform="translate(82 466)"/><rect width="2" height="2" transform="translate(82 498)"/><rect width="2" height="2" transform="translate(82 530)"/><rect width="2" height="2" transform="translate(82 562)"/><rect width="2" height="2" transform="translate(82 594)"/><rect width="2" height="2" transform="translate(82 626)"/><rect width="2" height="2" transform="translate(114 50)"/><rect width="2" height="2" transform="translate(114 82)"/><rect width="2" height="2" transform="translate(114 114)"/><rect width="2" height="2" transform="translate(114 146)"/><rect width="2" height="2" transform="translate(114 178)"/><rect width="2" height="2" transform="translate(114 210)"/><rect width="2" height="2" transform="translate(114 242)"/><rect width="2" height="2" transform="translate(114 274)"/><rect width="2" height="2" transform="translate(114 306)"/><rect width="2" height="2" transform="translate(114 338)"/><rect width="2" height="2" transform="translate(114 370)"/><rect width="2" height="2" transform="translate(114 402)"/><rect width="2" height="2" transform="translate(114 434)"/><rect width="2" height="2" transform="translate(114 466)"/><rect width="2" height="2" transform="translate(114 498)"/><rect width="2" height="2" transform="translate(114 530)"/><rect width="2" height="2" transform="translate(114 562)"/><rect width="2" height="2" transform="translate(114 594)"/><rect width="2" height="2" transform="translate(114 626)"/><rect width="2" height="2" transform="translate(146 50)"/><rect width="2" height="2" transform="translate(146 82)"/><rect width="2" height="2" transform="translate(146 114)"/><rect width="2" height="2" transform="translate(146 146)"/><rect width="2" height="2" transform="translate(146 178)"/><rect width="2" height="2" transform="translate(146 210)"/><rect width="2" height="2" transform="translate(146 242)"/><rect width="2" height="2" transform="translate(146 274)"/><rect width="2" height="2" transform="translate(146 306)"/><rect width="2" height="2" transform="translate(146 338)"/><rect width="2" height="2" transform="translate(146 370)"/><rect width="2" height="2" transform="translate(146 402)"/><rect width="2" height="2" transform="translate(146 434)"/><rect width="2" height="2" transform="translate(146 466)"/><rect width="2" height="2" transform="translate(146 498)"/><rect width="2" height="2" transform="translate(146 530)"/><rect width="2" height="2" transform="translate(146 562)"/><rect width="2" height="2" transform="translate(146 594)"/><rect width="2" height="2" transform="translate(146 626)"/><rect width="2" height="2" transform="translate(178 50)"/><rect width="2" height="2" transform="translate(178 82)"/><rect width="2" height="2" transform="translate(178 114)"/><rect width="2" height="2" transform="translate(178 146)"/><rect width="2" height="2" transform="translate(178 178)"/><rect width="2" height="2" transform="translate(178 210)"/><rect width="2" height="2" transform="translate(178 242)"/><rect width="2" height="2" transform="translate(178 274)"/><rect width="2" height="2" transform="translate(178 306)"/><rect width="2" height="2" transform="translate(178 338)"/><rect width="2" height="2" transform="translate(178 370)"/><rect width="2" height="2" transform="translate(178 402)"/><rect width="2" height="2" transform="translate(178 434)"/><rect width="2" height="2" transform="translate(178 466)"/><rect width="2" height="2" transform="translate(178 498)"/><rect width="2" height="2" transform="translate(178 530)"/><rect width="2" height="2" transform="translate(178 562)"/><rect width="2" height="2" transform="translate(178 594)"/><rect width="2" height="2" transform="translate(178 626)"/><rect width="2" height="2" transform="translate(210 50)"/><rect width="2" height="2" transform="translate(210 82)"/><rect width="2" height="2" transform="translate(210 114)"/><rect width="2" height="2" transform="translate(210 146)"/><rect width="2" height="2" transform="translate(210 178)"/><rect width="2" height="2" transform="translate(210 210)"/><rect width="2" height="2" transform="translate(210 242)"/><rect width="2" height="2" transform="translate(210 274)"/><rect width="2" height="2" transform="translate(210 306)"/><rect width="2" height="2" transform="translate(210 338)"/><rect width="2" height="2" transform="translate(210 370)"/><rect width="2" height="2" transform="translate(210 402)"/><rect width="2" height="2" transform="translate(210 434)"/><rect width="2" height="2" transform="translate(210 466)"/><rect width="2" height="2" transform="translate(210 498)"/><rect width="2" height="2" transform="translate(210 530)"/><rect width="2" height="2" transform="translate(210 562)"/><rect width="2" height="2" transform="translate(210 594)"/><rect width="2" height="2" transform="translate(210 626)"/><rect width="2" height="2" transform="translate(242 50)"/><rect width="2" height="2" transform="translate(242 82)"/><rect width="2" height="2" transform="translate(242 114)"/><rect width="2" height="2" transform="translate(242 146)"/><rect width="2" height="2" transform="translate(242 178)"/><rect width="2" height="2" transform="translate(242 210)"/><rect width="2" height="2" transform="translate(242 242)"/><rect width="2" height="2" transform="translate(242 274)"/><rect width="2" height="2" transform="translate(242 306)"/><rect width="2" height="2" transform="translate(242 338)"/><rect width="2" height="2" transform="translate(242 370)"/><rect width="2" height="2" transform="translate(242 402)"/><rect width="2" height="2" transform="translate(242 434)"/><rect width="2" height="2" transform="translate(242 466)"/><rect width="2" height="2" transform="translate(242 498)"/><rect width="2" height="2" transform="translate(242 530)"/><rect width="2" height="2" transform="translate(242 562)"/><rect width="2" height="2" transform="translate(242 594)"/><rect width="2" height="2" transform="translate(242 626)"/><rect width="2" height="2" transform="translate(274 50)"/><rect width="2" height="2" transform="translate(274 82)"/><rect width="2" height="2" transform="translate(274 114)"/><rect width="2" height="2" transform="translate(274 146)"/><rect width="2" height="2" transform="translate(274 178)"/><rect width="2" height="2" transform="translate(274 210)"/><rect width="2" height="2" transform="translate(274 242)"/><rect width="2" height="2" transform="translate(274 274)"/><rect width="2" height="2" transform="translate(274 306)"/><rect width="2" height="2" transform="translate(274 338)"/><rect width="2" height="2" transform="translate(274 370)"/><rect width="2" height="2" transform="translate(274 402)"/><rect width="2" height="2" transform="translate(274 434)"/><rect width="2" height="2" transform="translate(274 466)"/><rect width="2" height="2" transform="translate(274 498)"/><rect width="2" height="2" transform="translate(274 530)"/><rect width="2" height="2" transform="translate(274 562)"/><rect width="2" height="2" transform="translate(274 594)"/><rect width="2" height="2" transform="translate(274 626)"/><rect width="2" height="2" transform="translate(306 50)"/><rect width="2" height="2" transform="translate(306 82)"/><rect width="2" height="2" transform="translate(306 114)"/><rect width="2" height="2" transform="translate(306 146)"/><rect width="2" height="2" transform="translate(306 178)"/><rect width="2" height="2" transform="translate(306 210)"/><rect width="2" height="2" transform="translate(306 242)"/><rect width="2" height="2" transform="translate(306 274)"/><rect width="2" height="2" transform="translate(306 306)"/><rect width="2" height="2" transform="translate(306 338)"/><rect width="2" height="2" transform="translate(306 370)"/><rect width="2" height="2" transform="translate(306 402)"/><rect width="2" height="2" transform="translate(306 434)"/><rect width="2" height="2" transform="translate(306 466)"/><rect width="2" height="2" transform="translate(306 498)"/><rect width="2" height="2" transform="translate(306 530)"/><rect width="2" height="2" transform="translate(306 562)"/><rect width="2" height="2" transform="translate(306 594)"/><rect width="2" height="2" transform="translate(306 626)"/><rect width="2" height="2" transform="translate(338 50)"/><rect width="2" height="2" transform="translate(338 82)"/><rect width="2" height="2" transform="translate(338 114)"/><rect width="2" height="2" transform="translate(338 146)"/><rect width="2" height="2" transform="translate(338 178)"/><rect width="2" height="2" transform="translate(338 210)"/><rect width="2" height="2" transform="translate(338 242)"/><rect width="2" height="2" transform="translate(338 274)"/><rect width="2" height="2" transform="translate(338 306)"/><rect width="2" height="2" transform="translate(338 338)"/><rect width="2" height="2" transform="translate(338 370)"/><rect width="2" height="2" transform="translate(338 402)"/><rect width="2" height="2" transform="translate(338 434)"/><rect width="2" height="2" transform="translate(338 466)"/><rect width="2" height="2" transform="translate(338 498)"/><rect width="2" height="2" transform="translate(338 530)"/><rect width="2" height="2" transform="translate(338 562)"/><rect width="2" height="2" transform="translate(338 594)"/><rect width="2" height="2" transform="translate(338 626)"/><rect width="2" height="2" transform="translate(370 50)"/><rect width="2" height="2" transform="translate(370 82)"/><rect width="2" height="2" transform="translate(370 114)"/><rect width="2" height="2" transform="translate(370 146)"/><rect width="2" height="2" transform="translate(370 178)"/><rect width="2" height="2" transform="translate(370 210)"/><rect width="2" height="2" transform="translate(370 242)"/><rect width="2" height="2" transform="translate(370 274)"/><rect width="2" height="2" transform="translate(370 306)"/><rect width="2" height="2" transform="translate(370 338)"/><rect width="2" height="2" transform="translate(370 370)"/><rect width="2" height="2" transform="translate(370 402)"/><rect width="2" height="2" transform="translate(370 434)"/><rect width="2" height="2" transform="translate(370 466)"/><rect width="2" height="2" transform="translate(370 498)"/><rect width="2" height="2" transform="translate(370 530)"/><rect width="2" height="2" transform="translate(370 562)"/><rect width="2" height="2" transform="translate(370 594)"/><rect width="2" height="2" transform="translate(370 626)"/><rect width="2" height="2" transform="translate(402 50)"/><rect width="2" height="2" transform="translate(402 82)"/><rect width="2" height="2" transform="translate(402 114)"/><rect width="2" height="2" transform="translate(402 146)"/><rect width="2" height="2" transform="translate(402 178)"/><rect width="2" height="2" transform="translate(402 210)"/><rect width="2" height="2" transform="translate(402 242)"/><rect width="2" height="2" transform="translate(402 274)"/><rect width="2" height="2" transform="translate(402 306)"/><rect width="2" height="2" transform="translate(402 338)"/><rect width="2" height="2" transform="translate(402 370)"/><rect width="2" height="2" transform="translate(402 402)"/><rect width="2" height="2" transform="translate(402 434)"/><rect width="2" height="2" transform="translate(402 466)"/><rect width="2" height="2" transform="translate(402 498)"/><rect width="2" height="2" transform="translate(402 530)"/><rect width="2" height="2" transform="translate(402 562)"/><rect width="2" height="2" transform="translate(402 594)"/><rect width="2" height="2" transform="translate(402 626)"/><rect width="2" height="2" transform="translate(434 50)"/><rect width="2" height="2" transform="translate(434 82)"/><rect width="2" height="2" transform="translate(434 114)"/><rect width="2" height="2" transform="translate(434 146)"/><rect width="2" height="2" transform="translate(434 178)"/><rect width="2" height="2" transform="translate(434 210)"/><rect width="2" height="2" transform="translate(434 242)"/><rect width="2" height="2" transform="translate(434 274)"/><rect width="2" height="2" transform="translate(434 306)"/><rect width="2" height="2" transform="translate(434 338)"/><rect width="2" height="2" transform="translate(434 370)"/><rect width="2" height="2" transform="translate(434 402)"/><rect width="2" height="2" transform="translate(434 434)"/><rect width="2" height="2" transform="translate(434 466)"/><rect width="2" height="2" transform="translate(434 498)"/><rect width="2" height="2" transform="translate(434 530)"/><rect width="2" height="2" transform="translate(434 562)"/><rect width="2" height="2" transform="translate(434 594)"/><rect width="2" height="2" transform="translate(434 626)"/><rect width="2" height="2" transform="translate(466 50)"/><rect width="2" height="2" transform="translate(466 82)"/><rect width="2" height="2" transform="translate(466 114)"/><rect width="2" height="2" transform="translate(466 146)"/><rect width="2" height="2" transform="translate(466 178)"/><rect width="2" height="2" transform="translate(466 210)"/><rect width="2" height="2" transform="translate(466 242)"/><rect width="2" height="2" transform="translate(466 274)"/><rect width="2" height="2" transform="translate(466 306)"/><rect width="2" height="2" transform="translate(466 338)"/><rect width="2" height="2" transform="translate(466 370)"/><rect width="2" height="2" transform="translate(466 402)"/><rect width="2" height="2" transform="translate(466 434)"/><rect width="2" height="2" transform="translate(466 466)"/><rect width="2" height="2" transform="translate(466 498)"/><rect width="2" height="2" transform="translate(466 530)"/><rect width="2" height="2" transform="translate(466 562)"/><rect width="2" height="2" transform="translate(466 594)"/><rect width="2" height="2" transform="translate(466 626)"/><rect width="2" height="2" transform="translate(498 50)"/><rect width="2" height="2" transform="translate(498 82)"/><rect width="2" height="2" transform="translate(498 114)"/><rect width="2" height="2" transform="translate(498 146)"/><rect width="2" height="2" transform="translate(498 178)"/><rect width="2" height="2" transform="translate(498 210)"/><rect width="2" height="2" transform="translate(498 242)"/><rect width="2" height="2" transform="translate(498 274)"/><rect width="2" height="2" transform="translate(498 306)"/><rect width="2" height="2" transform="translate(498 338)"/><rect width="2" height="2" transform="translate(498 370)"/><rect width="2" height="2" transform="translate(498 402)"/><rect width="2" height="2" transform="translate(498 434)"/><rect width="2" height="2" transform="translate(498 466)"/><rect width="2" height="2" transform="translate(498 498)"/><rect width="2" height="2" transform="translate(498 530)"/><rect width="2" height="2" transform="translate(498 562)"/><rect width="2" height="2" transform="translate(498 594)"/><rect width="2" height="2" transform="translate(498 626)"/><rect width="2" height="2" transform="translate(530 50)"/><rect width="2" height="2" transform="translate(530 82)"/><rect width="2" height="2" transform="translate(530 114)"/><rect width="2" height="2" transform="translate(530 146)"/><rect width="2" height="2" transform="translate(530 178)"/><rect width="2" height="2" transform="translate(530 210)"/><rect width="2" height="2" transform="translate(530 242)"/><rect width="2" height="2" transform="translate(530 274)"/><rect width="2" height="2" transform="translate(530 306)"/><rect width="2" height="2" transform="translate(530 338)"/><rect width="2" height="2" transform="translate(530 370)"/><rect width="2" height="2" transform="translate(530 402)"/><rect width="2" height="2" transform="translate(530 434)"/><rect width="2" height="2" transform="translate(530 466)"/><rect width="2" height="2" transform="translate(530 498)"/><rect width="2" height="2" transform="translate(530 530)"/><rect width="2" height="2" transform="translate(530 562)"/><rect width="2" height="2" transform="translate(530 594)"/><rect width="2" height="2" transform="translate(530 626)"/><rect width="2" height="2" transform="translate(562 50)"/><rect width="2" height="2" transform="translate(562 82)"/><rect width="2" height="2" transform="translate(562 114)"/><rect width="2" height="2" transform="translate(562 146)"/><rect width="2" height="2" transform="translate(562 178)"/><rect width="2" height="2" transform="translate(562 210)"/><rect width="2" height="2" transform="translate(562 242)"/><rect width="2" height="2" transform="translate(562 274)"/><rect width="2" height="2" transform="translate(562 306)"/><rect width="2" height="2" transform="translate(562 338)"/><rect width="2" height="2" transform="translate(562 370)"/><rect width="2" height="2" transform="translate(562 402)"/><rect width="2" height="2" transform="translate(562 434)"/><rect width="2" height="2" transform="translate(562 466)"/><rect width="2" height="2" transform="translate(562 498)"/><rect width="2" height="2" transform="translate(562 530)"/><rect width="2" height="2" transform="translate(562 562)"/><rect width="2" height="2" transform="translate(562 594)"/><rect width="2" height="2" transform="translate(562 626)"/><rect width="2" height="2" transform="translate(594 50)"/><rect width="2" height="2" transform="translate(594 82)"/><rect width="2" height="2" transform="translate(594 114)"/><rect width="2" height="2" transform="translate(594 146)"/><rect width="2" height="2" transform="translate(594 178)"/><rect width="2" height="2" transform="translate(594 210)"/><rect width="2" height="2" transform="translate(594 242)"/><rect width="2" height="2" transform="translate(594 274)"/><rect width="2" height="2" transform="translate(594 306)"/><rect width="2" height="2" transform="translate(594 338)"/><rect width="2" height="2" transform="translate(594 370)"/><rect width="2" height="2" transform="translate(594 402)"/><rect width="2" height="2" transform="translate(594 434)"/><rect width="2" height="2" transform="translate(594 466)"/><rect width="2" height="2" transform="translate(594 498)"/><rect width="2" height="2" transform="translate(594 530)"/><rect width="2" height="2" transform="translate(594 562)"/><rect width="2" height="2" transform="translate(594 594)"/><rect width="2" height="2" transform="translate(594 626)"/><rect width="2" height="2" transform="translate(626 50)"/><rect width="2" height="2" transform="translate(626 82)"/><rect width="2" height="2" transform="translate(626 114)"/><rect width="2" height="2" transform="translate(626 146)"/><rect width="2" height="2" transform="translate(626 178)"/><rect width="2" height="2" transform="translate(626 210)"/><rect width="2" height="2" transform="translate(626 242)"/><rect width="2" height="2" transform="translate(626 274)"/><rect width="2" height="2" transform="translate(626 306)"/><rect width="2" height="2" transform="translate(626 338)"/><rect width="2" height="2" transform="translate(626 370)"/><rect width="2" height="2" transform="translate(626 402)"/><rect width="2" height="2" transform="translate(626 434)"/><rect width="2" height="2" transform="translate(626 466)"/><rect width="2" height="2" transform="translate(626 498)"/><rect width="2" height="2" transform="translate(626 530)"/><rect width="2" height="2" transform="translate(626 562)"/><rect width="2" height="2" transform="translate(626 594)"/><rect width="2" height="2" transform="translate(626 626)"/><rect width="32" height="2" transform="translate(51 50)"/><rect width="32" height="2" transform="translate(51 626)"/><rect width="32" height="2" transform="translate(83 50)"/><rect width="32" height="2" transform="translate(83 626)"/><rect width="32" height="2" transform="translate(115 50)"/><rect width="32" height="2" transform="translate(115 626)"/><rect width="32" height="2" transform="translate(147 50)"/><rect width="32" height="2" transform="translate(147 626)"/><rect width="32" height="2" transform="translate(179 50)"/><rect width="32" height="2" transform="translate(179 626)"/><rect width="32" height="2" transform="translate(211 50)"/><rect width="32" height="2" transform="translate(211 626)"/><rect width="32" height="2" transform="translate(243 50)"/><rect width="32" height="2" transform="translate(243 626)"/><rect width="32" height="2" transform="translate(275 50)"/><rect width="32" height="2" transform="translate(275 626)"/><rect width="32" height="2" transform="translate(307 50)"/><rect width="32" height="2" transform="translate(307 626)"/><rect width="32" height="2" transform="translate(339 50)"/><rect width="32" height="2" transform="translate(339 626)"/><rect width="32" height="2" transform="translate(371 50)"/><rect width="32" height="2" transform="translate(371 626)"/><rect width="32" height="2" transform="translate(403 50)"/><rect width="32" height="2" transform="translate(403 626)"/><rect width="32" height="2" transform="translate(435 50)"/><rect width="32" height="2" transform="translate(435 626)"/><rect width="32" height="2" transform="translate(467 50)"/><rect width="32" height="2" transform="translate(467 626)"/><rect width="32" height="2" transform="translate(499 50)"/><rect width="32" height="2" transform="translate(499 626)"/><rect width="32" height="2" transform="translate(531 50)"/><rect width="32" height="2" transform="translate(531 626)"/><rect width="32" height="2" transform="translate(563 50)"/><rect width="32" height="2" transform="translate(563 626)"/><rect width="32" height="2" transform="translate(595 50)"/><rect width="32" height="2" transform="translate(595 626)"/><rect width="2" height="32" transform="translate(50 83)"/><rect width="2" height="32" transform="translate(50 115)"/><rect width="2" height="32" transform="translate(50 147)"/><rect width="2" height="32" transform="translate(50 179)"/><rect width="2" height="32" transform="translate(50 211)"/><rect width="2" height="32" transform="translate(50 243)"/><rect width="2" height="32" transform="translate(50 275)"/><rect width="2" height="32" transform="translate(50 307)"/><rect width="2" height="32" transform="translate(50 339)"/><rect width="2" height="32" transform="translate(50 371)"/><rect width="2" height="32" transform="translate(50 403)"/><rect width="2" height="32" transform="translate(50 435)"/><rect width="2" height="32" transform="translate(50 467)"/><rect width="2" height="32" transform="translate(50 499)"/><rect width="2" height="32" transform="translate(50 531)"/><rect width="2" height="32" transform="translate(50 563)"/><rect width="2" height="32" transform="translate(50 595)"/><rect width="2" height="32" transform="translate(626 51)"/><rect width="2" height="32" transform="translate(626 83)"/><rect width="2" height="32" transform="translate(626 115)"/><rect width="2" height="32" transform="translate(626 147)"/><rect width="2" height="32" transform="translate(626 179)"/><rect width="2" height="32" transform="translate(626 211)"/><rect width="2" height="32" transform="translate(626 243)"/><rect width="2" height="32" transform="translate(626 275)"/><rect width="2" height="32" transform="translate(626 307)"/><rect width="2" height="32" transform="translate(626 339)"/><rect width="2" height="32" transform="translate(626 371)"/><rect width="2" height="32" transform="translate(626 403)"/><rect width="2" height="32" transform="translate(626 435)"/><rect width="2" height="32" transform="translate(626 467)"/><rect width="2" height="32" transform="translate(626 499)"/><rect width="2" height="32" transform="translate(626 531)"/><rect width="2" height="32" transform="translate(626 563)"/><rect width="2" height="32" transform="translate(82 51)"/><rect width="2" height="32" transform="translate(210 51)"/><rect width="2" height="32" transform="translate(306 51)"/><rect width="2" height="32" transform="translate(466 51)"/><rect width="2" height="32" transform="translate(114 83)"/><rect width="2" height="32" transform="translate(178 83)"/><rect width="2" height="32" transform="translate(242 83)"/><rect width="2" height="32" transform="translate(274 83)"/><rect width="2" height="32" transform="translate(370 83)"/><rect width="2" height="32" transform="translate(434 83)"/><rect width="2" height="32" transform="translate(498 83)"/><rect width="2" height="32" transform="translate(562 83)"/><rect width="2" height="32" transform="translate(114 115)"/><rect width="2" height="32" transform="translate(178 115)"/><rect width="2" height="32" transform="translate(274 115)"/><rect width="2" height="32" transform="translate(370 115)"/><rect width="2" height="32" transform="translate(434 115)"/><rect width="2" height="32" transform="translate(466 115)"/><rect width="2" height="32" transform="translate(530 115)"/><rect width="2" height="32" transform="translate(562 115)"/><rect width="2" height="32" transform="translate(594 115)"/><rect width="2" height="32" transform="translate(82 147)"/><rect width="2" height="32" transform="translate(178 147)"/><rect width="2" height="32" transform="translate(242 147)"/><rect width="2" height="32" transform="translate(306 147)"/><rect width="2" height="32" transform="translate(434 147)"/><rect width="2" height="32" transform="translate(498 147)"/><rect width="2" height="32" transform="translate(530 147)"/><rect width="2" height="32" transform="translate(562 147)"/><rect width="2" height="32" transform="translate(82 179)"/><rect width="2" height="32" transform="translate(210 179)"/><rect width="2" height="32" transform="translate(242 179)"/><rect width="2" height="32" transform="translate(306 179)"/><rect width="2" height="32" transform="translate(338 179)"/><rect width="2" height="32" transform="translate(498 179)"/><rect width="2" height="32" transform="translate(594 179)"/><rect width="2" height="32" transform="translate(114 211)"/><rect width="2" height="32" transform="translate(146 211)"/><rect width="2" height="32" transform="translate(242 211)"/><rect width="2" height="32" transform="translate(274 211)"/><rect width="2" height="32" transform="translate(306 211)"/><rect width="2" height="32" transform="translate(338 211)"/><rect width="2" height="32" transform="translate(466 211)"/><rect width="2" height="32" transform="translate(562 211)"/><rect width="2" height="32" transform="translate(594 211)"/><rect width="2" height="32" transform="translate(82 243)"/><rect width="2" height="32" transform="translate(178 243)"/><rect width="2" height="32" transform="translate(242 243)"/><rect width="2" height="32" transform="translate(274 243)"/><rect width="2" height="32" transform="translate(434 243)"/><rect width="2" height="32" transform="translate(466 243)"/><rect width="2" height="32" transform="translate(530 243)"/><rect width="2" height="32" transform="translate(594 243)"/><rect width="2" height="32" transform="translate(82 275)"/><rect width="2" height="32" transform="translate(146 275)"/><rect width="2" height="32" transform="translate(178 275)"/><rect width="2" height="32" transform="translate(306 275)"/><rect width="2" height="32" transform="translate(370 275)"/><rect width="2" height="32" transform="translate(530 275)"/><rect width="2" height="32" transform="translate(562 275)"/><rect width="2" height="32" transform="translate(114 307)"/><rect width="2" height="32" transform="translate(146 307)"/><rect width="2" height="32" transform="translate(178 307)"/><rect width="2" height="32" transform="translate(274 307)"/><rect width="2" height="32" transform="translate(306 307)"/><rect width="2" height="32" transform="translate(338 307)"/><rect width="2" height="32" transform="translate(402 307)"/><rect width="2" height="32" transform="translate(498 307)"/><rect width="2" height="32" transform="translate(562 307)"/><rect width="2" height="32" transform="translate(594 307)"/><rect width="2" height="32" transform="translate(82 339)"/><rect width="2" height="32" transform="translate(146 339)"/><rect width="2" height="32" transform="translate(242 339)"/><rect width="2" height="32" transform="translate(274 339)"/><rect width="2" height="32" transform="translate(306 339)"/><rect width="2" height="32" transform="translate(338 339)"/><rect width="2" height="32" transform="translate(402 339)"/><rect width="2" height="32" transform="translate(466 339)"/><rect width="2" height="32" transform="translate(498 339)"/><rect width="2" height="32" transform="translate(562 339)"/><rect width="2" height="32" transform="translate(82 371)"/><rect width="2" height="32" transform="translate(146 371)"/><rect width="2" height="32" transform="translate(178 371)"/><rect width="2" height="32" transform="translate(242 371)"/><rect width="2" height="32" transform="translate(306 371)"/><rect width="2" height="32" transform="translate(370 371)"/><rect width="2" height="32" transform="translate(466 371)"/><rect width="2" height="32" transform="translate(498 371)"/><rect width="2" height="32" transform="translate(114 403)"/><rect width="2" height="32" transform="translate(178 403)"/><rect width="2" height="32" transform="translate(210 403)"/><rect width="2" height="32" transform="translate(306 403)"/><rect width="2" height="32" transform="translate(338 403)"/><rect width="2" height="32" transform="translate(466 403)"/><rect width="2" height="32" transform="translate(498 403)"/><rect width="2" height="32" transform="translate(562 403)"/><rect width="2" height="32" transform="translate(82 435)"/><rect width="2" height="32" transform="translate(146 435)"/><rect width="2" height="32" transform="translate(178 435)"/><rect width="2" height="32" transform="translate(274 435)"/><rect width="2" height="32" transform="translate(402 435)"/><rect width="2" height="32" transform="translate(466 435)"/><rect width="2" height="32" transform="translate(498 435)"/><rect width="2" height="32" transform="translate(562 435)"/><rect width="2" height="32" transform="translate(82 467)"/><rect width="2" height="32" transform="translate(146 467)"/><rect width="2" height="32" transform="translate(274 467)"/><rect width="2" height="32" transform="translate(370 467)"/><rect width="2" height="32" transform="translate(434 467)"/><rect width="2" height="32" transform="translate(466 467)"/><rect width="2" height="32" transform="translate(498 467)"/><rect width="2" height="32" transform="translate(530 467)"/><rect width="2" height="32" transform="translate(594 467)"/><rect width="2" height="32" transform="translate(114 499)"/><rect width="2" height="32" transform="translate(178 499)"/><rect width="2" height="32" transform="translate(306 499)"/><rect width="2" height="32" transform="translate(370 499)"/><rect width="2" height="32" transform="translate(434 499)"/><rect width="2" height="32" transform="translate(466 499)"/><rect width="2" height="32" transform="translate(530 499)"/><rect width="2" height="32" transform="translate(146 531)"/><rect width="2" height="32" transform="translate(210 531)"/><rect width="2" height="32" transform="translate(306 531)"/><rect width="2" height="32" transform="translate(370 531)"/><rect width="2" height="32" transform="translate(434 531)"/><rect width="2" height="32" transform="translate(530 531)"/><rect width="2" height="32" transform="translate(562 531)"/><rect width="2" height="32" transform="translate(178 563)"/><rect width="2" height="32" transform="translate(242 563)"/><rect width="2" height="32" transform="translate(274 563)"/><rect width="2" height="32" transform="translate(306 563)"/><rect width="2" height="32" transform="translate(370 563)"/><rect width="2" height="32" transform="translate(466 563)"/><rect width="2" height="32" transform="translate(498 563)"/><rect width="2" height="32" transform="translate(530 563)"/><rect width="2" height="32" transform="translate(594 563)"/><rect width="2" height="32" transform="translate(242 595)"/><rect width="2" height="32" transform="translate(306 595)"/><rect width="2" height="32" transform="translate(498 595)"/><rect width="2" height="32" transform="translate(594 595)"/><rect width="32" height="2" transform="translate(115 82)"/><rect width="32" height="2" transform="translate(243 82)"/><rect width="32" height="2" transform="translate(307 82)"/><rect width="32" height="2" transform="translate(371 82)"/><rect width="32" height="2" transform="translate(435 82)"/><rect width="32" height="2" transform="translate(499 82)"/><rect width="32" height="2" transform="translate(531 82)"/><rect width="32" height="2" transform="translate(563 82)"/><rect width="32" height="2" transform="translate(51 114)"/><rect width="32" height="2" transform="translate(83 114)"/><rect width="32" height="2" transform="translate(147 114)"/><rect width="32" height="2" transform="translate(179 114)"/><rect width="32" height="2" transform="translate(211 114)"/><rect width="32" height="2" transform="translate(275 114)"/><rect width="32" height="2" transform="translate(307 114)"/><rect width="32" height="2" transform="translate(339 114)"/><rect width="32" height="2" transform="translate(403 114)"/><rect width="32" height="2" transform="translate(467 114)"/><rect width="32" height="2" transform="translate(115 146)"/><rect width="32" height="2" transform="translate(179 146)"/><rect width="32" height="2" transform="translate(307 146)"/><rect width="32" height="2" transform="translate(339 146)"/><rect width="32" height="2" transform="translate(371 146)"/><rect width="32" height="2" transform="translate(467 146)"/><rect width="32" height="2" transform="translate(595 146)"/><rect width="32" height="2" transform="translate(83 178)"/><rect width="32" height="2" transform="translate(115 178)"/><rect width="32" height="2" transform="translate(147 178)"/><rect width="32" height="2" transform="translate(243 178)"/><rect width="32" height="2" transform="translate(275 178)"/><rect width="32" height="2" transform="translate(339 178)"/><rect width="32" height="2" transform="translate(371 178)"/><rect width="32" height="2" transform="translate(403 178)"/><rect width="32" height="2" transform="translate(435 178)"/><rect width="32" height="2" transform="translate(531 178)"/><rect width="32" height="2" transform="translate(563 178)"/><rect width="32" height="2" transform="translate(83 210)"/><rect width="32" height="2" transform="translate(179 210)"/><rect width="32" height="2" transform="translate(211 210)"/><rect width="32" height="2" transform="translate(371 210)"/><rect width="32" height="2" transform="translate(403 210)"/><rect width="32" height="2" transform="translate(435 210)"/><rect width="32" height="2" transform="translate(467 210)"/><rect width="32" height="2" transform="translate(531 210)"/><rect width="32" height="2" transform="translate(115 242)"/><rect width="32" height="2" transform="translate(147 242)"/><rect width="32" height="2" transform="translate(179 242)"/><rect width="32" height="2" transform="translate(339 242)"/><rect width="32" height="2" transform="translate(371 242)"/><rect width="32" height="2" transform="translate(403 242)"/><rect width="32" height="2" transform="translate(499 242)"/><rect width="32" height="2" transform="translate(531 242)"/><rect width="32" height="2" transform="translate(83 274)"/><rect width="32" height="2" transform="translate(115 274)"/><rect width="32" height="2" transform="translate(211 274)"/><rect width="32" height="2" transform="translate(275 274)"/><rect width="32" height="2" transform="translate(307 274)"/><rect width="32" height="2" transform="translate(339 274)"/><rect width="32" height="2" transform="translate(371 274)"/><rect width="32" height="2" transform="translate(403 274)"/><rect width="32" height="2" transform="translate(467 274)"/><rect width="32" height="2" transform="translate(499 274)"/><rect width="32" height="2" transform="translate(563 274)"/><rect width="32" height="2" transform="translate(83 306)"/><rect width="32" height="2" transform="translate(179 306)"/><rect width="32" height="2" transform="translate(211 306)"/><rect width="32" height="2" transform="translate(243 306)"/><rect width="32" height="2" transform="translate(403 306)"/><rect width="32" height="2" transform="translate(435 306)"/><rect width="32" height="2" transform="translate(467 306)"/><rect width="32" height="2" transform="translate(51 338)"/><rect width="32" height="2" transform="translate(211 338)"/><rect width="32" height="2" transform="translate(339 338)"/><rect width="32" height="2" transform="translate(371 338)"/><rect width="32" height="2" transform="translate(435 338)"/><rect width="32" height="2" transform="translate(499 338)"/><rect width="32" height="2" transform="translate(595 338)"/><rect width="32" height="2" transform="translate(83 370)"/><rect width="32" height="2" transform="translate(147 370)"/><rect width="32" height="2" transform="translate(179 370)"/><rect width="32" height="2" transform="translate(211 370)"/><rect width="32" height="2" transform="translate(275 370)"/><rect width="32" height="2" transform="translate(339 370)"/><rect width="32" height="2" transform="translate(403 370)"/><rect width="32" height="2" transform="translate(499 370)"/><rect width="32" height="2" transform="translate(531 370)"/><rect width="32" height="2" transform="translate(563 370)"/><rect width="32" height="2" transform="translate(115 402)"/><rect width="32" height="2" transform="translate(243 402)"/><rect width="32" height="2" transform="translate(307 402)"/><rect width="32" height="2" transform="translate(371 402)"/><rect width="32" height="2" transform="translate(403 402)"/><rect width="32" height="2" transform="translate(435 402)"/><rect width="32" height="2" transform="translate(531 402)"/><rect width="32" height="2" transform="translate(563 402)"/><rect width="32" height="2" transform="translate(595 402)"/><rect width="32" height="2" transform="translate(83 434)"/><rect width="32" height="2" transform="translate(211 434)"/><rect width="32" height="2" transform="translate(243 434)"/><rect width="32" height="2" transform="translate(339 434)"/><rect width="32" height="2" transform="translate(371 434)"/><rect width="32" height="2" transform="translate(403 434)"/><rect width="32" height="2" transform="translate(499 434)"/><rect width="32" height="2" transform="translate(595 434)"/><rect width="32" height="2" transform="translate(83 466)"/><rect width="32" height="2" transform="translate(147 466)"/><rect width="32" height="2" transform="translate(179 466)"/><rect width="32" height="2" transform="translate(211 466)"/><rect width="32" height="2" transform="translate(275 466)"/><rect width="32" height="2" transform="translate(307 466)"/><rect width="32" height="2" transform="translate(339 466)"/><rect width="32" height="2" transform="translate(371 466)"/><rect width="32" height="2" transform="translate(435 466)"/><rect width="32" height="2" transform="translate(531 466)"/><rect width="32" height="2" transform="translate(115 498)"/><rect width="32" height="2" transform="translate(179 498)"/><rect width="32" height="2" transform="translate(211 498)"/><rect width="32" height="2" transform="translate(243 498)"/><rect width="32" height="2" transform="translate(307 498)"/><rect width="32" height="2" transform="translate(403 498)"/><rect width="32" height="2" transform="translate(531 498)"/><rect width="32" height="2" transform="translate(563 498)"/><rect width="32" height="2" transform="translate(51 530)"/><rect width="32" height="2" transform="translate(83 530)"/><rect width="32" height="2" transform="translate(147 530)"/><rect width="32" height="2" transform="translate(211 530)"/><rect width="32" height="2" transform="translate(243 530)"/><rect width="32" height="2" transform="translate(275 530)"/><rect width="32" height="2" transform="translate(339 530)"/><rect width="32" height="2" transform="translate(371 530)"/><rect width="32" height="2" transform="translate(467 530)"/><rect width="32" height="2" transform="translate(499 530)"/><rect width="32" height="2" transform="translate(563 530)"/><rect width="32" height="2" transform="translate(83 562)"/><rect width="32" height="2" transform="translate(115 562)"/><rect width="32" height="2" transform="translate(179 562)"/><rect width="32" height="2" transform="translate(243 562)"/><rect width="32" height="2" transform="translate(307 562)"/><rect width="32" height="2" transform="translate(403 562)"/><rect width="32" height="2" transform="translate(435 562)"/><rect width="32" height="2" transform="translate(563 562)"/><rect width="32" height="2" transform="translate(83 594)"/><rect width="32" height="2" transform="translate(115 594)"/><rect width="32" height="2" transform="translate(147 594)"/><rect width="32" height="2" transform="translate(179 594)"/><rect width="32" height="2" transform="translate(339 594)"/><rect width="32" height="2" transform="translate(371 594)"/><rect width="32" height="2" transform="translate(403 594)"/><rect width="32" height="2" transform="translate(531 594)"/></g></svg>