<svg xmlns="http://www.w3.org/2000/svg" fill="#00adb5" width="195.161" height="195.161" viewBox="0 0 195.161 195.161">
  <g id="Group_93" data-name="Group 93" transform="translate(97.581 -70.711) rotate(45)">
    <rect id="Rectangle_288" data-name="Rectangle 288" width="4" height="4" transform="translate(50 50)"/>
    <rect id="Rectangle_289" data-name="Rectangle 289" width="4" height="5" transform="translate(50 63)"/>
    <rect id="Rectangle_290" data-name="Rectangle 290" width="4" height="4" transform="translate(50 77)"/>
    <rect id="Rectangle_291" data-name="Rectangle 291" width="4" height="4" transform="translate(50 90)"/>
    <rect id="Rectangle_292" data-name="Rectangle 292" width="4" height="5" transform="translate(50 103)"/>
    <rect id="Rectangle_293" data-name="Rectangle 293" width="4" height="4" transform="translate(50 117)"/>
    <rect id="Rectangle_294" data-name="Rectangle 294" width="4" height="4" transform="translate(50 130)"/>
    <rect id="Rectangle_295" data-name="Rectangle 295" width="4" height="5" transform="translate(50 143)"/>
    <rect id="Rectangle_296" data-name="Rectangle 296" width="4" height="4" transform="translate(50 157)"/>
    <rect id="Rectangle_297" data-name="Rectangle 297" width="4" height="4" transform="translate(50 170)"/>
    <rect id="Rectangle_298" data-name="Rectangle 298" width="4" height="5" transform="translate(50 183)"/>
    <rect id="Rectangle_299" data-name="Rectangle 299" width="5" height="4" transform="translate(63 50)"/>
    <rect id="Rectangle_300" data-name="Rectangle 300" width="5" height="5" transform="translate(63 63)"/>
    <rect id="Rectangle_301" data-name="Rectangle 301" width="5" height="4" transform="translate(63 77)"/>
    <rect id="Rectangle_302" data-name="Rectangle 302" width="5" height="4" transform="translate(63 90)"/>
    <rect id="Rectangle_303" data-name="Rectangle 303" width="5" height="5" transform="translate(63 103)"/>
    <rect id="Rectangle_304" data-name="Rectangle 304" width="5" height="4" transform="translate(63 117)"/>
    <rect id="Rectangle_305" data-name="Rectangle 305" width="5" height="4" transform="translate(63 130)"/>
    <rect id="Rectangle_306" data-name="Rectangle 306" width="5" height="5" transform="translate(63 143)"/>
    <rect id="Rectangle_307" data-name="Rectangle 307" width="5" height="4" transform="translate(63 157)"/>
    <rect id="Rectangle_308" data-name="Rectangle 308" width="5" height="4" transform="translate(63 170)"/>
    <rect id="Rectangle_309" data-name="Rectangle 309" width="5" height="5" transform="translate(63 183)"/>
    <rect id="Rectangle_310" data-name="Rectangle 310" width="4" height="4" transform="translate(77 50)"/>
    <rect id="Rectangle_311" data-name="Rectangle 311" width="4" height="5" transform="translate(77 63)"/>
    <rect id="Rectangle_312" data-name="Rectangle 312" width="4" height="4" transform="translate(77 77)"/>
    <rect id="Rectangle_313" data-name="Rectangle 313" width="4" height="4" transform="translate(77 90)"/>
    <rect id="Rectangle_314" data-name="Rectangle 314" width="4" height="5" transform="translate(77 103)"/>
    <rect id="Rectangle_315" data-name="Rectangle 315" width="4" height="4" transform="translate(77 117)"/>
    <rect id="Rectangle_316" data-name="Rectangle 316" width="4" height="4" transform="translate(77 130)"/>
    <rect id="Rectangle_317" data-name="Rectangle 317" width="4" height="5" transform="translate(77 143)"/>
    <rect id="Rectangle_318" data-name="Rectangle 318" width="4" height="4" transform="translate(77 157)"/>
    <rect id="Rectangle_319" data-name="Rectangle 319" width="4" height="4" transform="translate(77 170)"/>
    <rect id="Rectangle_320" data-name="Rectangle 320" width="4" height="5" transform="translate(77 183)"/>
    <rect id="Rectangle_321" data-name="Rectangle 321" width="4" height="4" transform="translate(90 50)"/>
    <rect id="Rectangle_322" data-name="Rectangle 322" width="4" height="5" transform="translate(90 63)"/>
    <rect id="Rectangle_323" data-name="Rectangle 323" width="4" height="4" transform="translate(90 77)"/>
    <rect id="Rectangle_324" data-name="Rectangle 324" width="4" height="4" transform="translate(90 90)"/>
    <rect id="Rectangle_325" data-name="Rectangle 325" width="4" height="5" transform="translate(90 103)"/>
    <rect id="Rectangle_326" data-name="Rectangle 326" width="4" height="4" transform="translate(90 117)"/>
    <rect id="Rectangle_327" data-name="Rectangle 327" width="4" height="4" transform="translate(90 130)"/>
    <rect id="Rectangle_328" data-name="Rectangle 328" width="4" height="5" transform="translate(90 143)"/>
    <rect id="Rectangle_329" data-name="Rectangle 329" width="4" height="4" transform="translate(90 157)"/>
    <rect id="Rectangle_330" data-name="Rectangle 330" width="4" height="4" transform="translate(90 170)"/>
    <rect id="Rectangle_331" data-name="Rectangle 331" width="4" height="5" transform="translate(90 183)"/>
    <rect id="Rectangle_332" data-name="Rectangle 332" width="5" height="4" transform="translate(103 50)"/>
    <rect id="Rectangle_333" data-name="Rectangle 333" width="5" height="5" transform="translate(103 63)"/>
    <rect id="Rectangle_334" data-name="Rectangle 334" width="5" height="4" transform="translate(103 77)"/>
    <rect id="Rectangle_335" data-name="Rectangle 335" width="5" height="4" transform="translate(103 90)"/>
    <rect id="Rectangle_336" data-name="Rectangle 336" width="5" height="5" transform="translate(103 103)"/>
    <rect id="Rectangle_337" data-name="Rectangle 337" width="5" height="4" transform="translate(103 117)"/>
    <rect id="Rectangle_338" data-name="Rectangle 338" width="5" height="4" transform="translate(103 130)"/>
    <rect id="Rectangle_339" data-name="Rectangle 339" width="5" height="5" transform="translate(103 143)"/>
    <rect id="Rectangle_340" data-name="Rectangle 340" width="5" height="4" transform="translate(103 157)"/>
    <rect id="Rectangle_341" data-name="Rectangle 341" width="5" height="4" transform="translate(103 170)"/>
    <rect id="Rectangle_342" data-name="Rectangle 342" width="5" height="5" transform="translate(103 183)"/>
    <rect id="Rectangle_343" data-name="Rectangle 343" width="4" height="4" transform="translate(117 50)"/>
    <rect id="Rectangle_344" data-name="Rectangle 344" width="4" height="5" transform="translate(117 63)"/>
    <rect id="Rectangle_345" data-name="Rectangle 345" width="4" height="4" transform="translate(117 77)"/>
    <rect id="Rectangle_346" data-name="Rectangle 346" width="4" height="4" transform="translate(117 90)"/>
    <rect id="Rectangle_347" data-name="Rectangle 347" width="4" height="5" transform="translate(117 103)"/>
    <rect id="Rectangle_348" data-name="Rectangle 348" width="4" height="4" transform="translate(117 117)"/>
    <rect id="Rectangle_349" data-name="Rectangle 349" width="4" height="4" transform="translate(117 130)"/>
    <rect id="Rectangle_350" data-name="Rectangle 350" width="4" height="5" transform="translate(117 143)"/>
    <rect id="Rectangle_351" data-name="Rectangle 351" width="4" height="4" transform="translate(117 157)"/>
    <rect id="Rectangle_352" data-name="Rectangle 352" width="4" height="4" transform="translate(117 170)"/>
    <rect id="Rectangle_353" data-name="Rectangle 353" width="4" height="5" transform="translate(117 183)"/>
    <rect id="Rectangle_354" data-name="Rectangle 354" width="4" height="4" transform="translate(130 50)"/>
    <rect id="Rectangle_355" data-name="Rectangle 355" width="4" height="5" transform="translate(130 63)"/>
    <rect id="Rectangle_356" data-name="Rectangle 356" width="4" height="4" transform="translate(130 77)"/>
    <rect id="Rectangle_357" data-name="Rectangle 357" width="4" height="4" transform="translate(130 90)"/>
    <rect id="Rectangle_358" data-name="Rectangle 358" width="4" height="5" transform="translate(130 103)"/>
    <rect id="Rectangle_359" data-name="Rectangle 359" width="4" height="4" transform="translate(130 117)"/>
    <rect id="Rectangle_360" data-name="Rectangle 360" width="4" height="4" transform="translate(130 130)"/>
    <rect id="Rectangle_361" data-name="Rectangle 361" width="4" height="5" transform="translate(130 143)"/>
    <rect id="Rectangle_362" data-name="Rectangle 362" width="4" height="4" transform="translate(130 157)"/>
    <rect id="Rectangle_363" data-name="Rectangle 363" width="4" height="4" transform="translate(130 170)"/>
    <rect id="Rectangle_364" data-name="Rectangle 364" width="4" height="5" transform="translate(130 183)"/>
    <rect id="Rectangle_365" data-name="Rectangle 365" width="5" height="4" transform="translate(143 50)"/>
    <rect id="Rectangle_366" data-name="Rectangle 366" width="5" height="5" transform="translate(143 63)"/>
    <rect id="Rectangle_367" data-name="Rectangle 367" width="5" height="4" transform="translate(143 77)"/>
    <rect id="Rectangle_368" data-name="Rectangle 368" width="5" height="4" transform="translate(143 90)"/>
    <rect id="Rectangle_369" data-name="Rectangle 369" width="5" height="5" transform="translate(143 103)"/>
    <rect id="Rectangle_370" data-name="Rectangle 370" width="5" height="4" transform="translate(143 117)"/>
    <rect id="Rectangle_371" data-name="Rectangle 371" width="5" height="4" transform="translate(143 130)"/>
    <rect id="Rectangle_372" data-name="Rectangle 372" width="5" height="5" transform="translate(143 143)"/>
    <rect id="Rectangle_373" data-name="Rectangle 373" width="5" height="4" transform="translate(143 157)"/>
    <rect id="Rectangle_374" data-name="Rectangle 374" width="5" height="4" transform="translate(143 170)"/>
    <rect id="Rectangle_375" data-name="Rectangle 375" width="5" height="5" transform="translate(143 183)"/>
    <rect id="Rectangle_376" data-name="Rectangle 376" width="4" height="4" transform="translate(157 50)"/>
    <rect id="Rectangle_377" data-name="Rectangle 377" width="4" height="5" transform="translate(157 63)"/>
    <rect id="Rectangle_378" data-name="Rectangle 378" width="4" height="4" transform="translate(157 77)"/>
    <rect id="Rectangle_379" data-name="Rectangle 379" width="4" height="4" transform="translate(157 90)"/>
    <rect id="Rectangle_380" data-name="Rectangle 380" width="4" height="5" transform="translate(157 103)"/>
    <rect id="Rectangle_381" data-name="Rectangle 381" width="4" height="4" transform="translate(157 117)"/>
    <rect id="Rectangle_382" data-name="Rectangle 382" width="4" height="4" transform="translate(157 130)"/>
    <rect id="Rectangle_383" data-name="Rectangle 383" width="4" height="5" transform="translate(157 143)"/>
    <rect id="Rectangle_384" data-name="Rectangle 384" width="4" height="4" transform="translate(157 157)"/>
    <rect id="Rectangle_385" data-name="Rectangle 385" width="4" height="4" transform="translate(157 170)"/>
    <rect id="Rectangle_386" data-name="Rectangle 386" width="4" height="5" transform="translate(157 183)"/>
    <rect id="Rectangle_387" data-name="Rectangle 387" width="4" height="4" transform="translate(170 50)"/>
    <rect id="Rectangle_388" data-name="Rectangle 388" width="4" height="5" transform="translate(170 63)"/>
    <rect id="Rectangle_389" data-name="Rectangle 389" width="4" height="4" transform="translate(170 77)"/>
    <rect id="Rectangle_390" data-name="Rectangle 390" width="4" height="4" transform="translate(170 90)"/>
    <rect id="Rectangle_391" data-name="Rectangle 391" width="4" height="5" transform="translate(170 103)"/>
    <rect id="Rectangle_392" data-name="Rectangle 392" width="4" height="4" transform="translate(170 117)"/>
    <rect id="Rectangle_393" data-name="Rectangle 393" width="4" height="4" transform="translate(170 130)"/>
    <rect id="Rectangle_394" data-name="Rectangle 394" width="4" height="5" transform="translate(170 143)"/>
    <rect id="Rectangle_395" data-name="Rectangle 395" width="4" height="4" transform="translate(170 157)"/>
    <rect id="Rectangle_396" data-name="Rectangle 396" width="4" height="4" transform="translate(170 170)"/>
    <rect id="Rectangle_397" data-name="Rectangle 397" width="4" height="5" transform="translate(170 183)"/>
    <rect id="Rectangle_398" data-name="Rectangle 398" width="5" height="4" transform="translate(183 50)"/>
    <rect id="Rectangle_399" data-name="Rectangle 399" width="5" height="5" transform="translate(183 63)"/>
    <rect id="Rectangle_400" data-name="Rectangle 400" width="5" height="4" transform="translate(183 77)"/>
    <rect id="Rectangle_401" data-name="Rectangle 401" width="5" height="4" transform="translate(183 90)"/>
    <rect id="Rectangle_402" data-name="Rectangle 402" width="5" height="5" transform="translate(183 103)"/>
    <rect id="Rectangle_403" data-name="Rectangle 403" width="5" height="4" transform="translate(183 117)"/>
    <rect id="Rectangle_404" data-name="Rectangle 404" width="5" height="4" transform="translate(183 130)"/>
    <rect id="Rectangle_405" data-name="Rectangle 405" width="5" height="5" transform="translate(183 143)"/>
    <rect id="Rectangle_406" data-name="Rectangle 406" width="5" height="4" transform="translate(183 157)"/>
    <rect id="Rectangle_407" data-name="Rectangle 407" width="5" height="4" transform="translate(183 170)"/>
    <rect id="Rectangle_408" data-name="Rectangle 408" width="5" height="5" transform="translate(183 183)"/>
    <rect id="Rectangle_409" data-name="Rectangle 409" width="13" height="4" transform="translate(52 50)"/>
    <rect id="Rectangle_410" data-name="Rectangle 410" width="13" height="5" transform="translate(52 183)"/>
    <rect id="Rectangle_411" data-name="Rectangle 411" width="14" height="4" transform="translate(65 50)"/>
    <rect id="Rectangle_412" data-name="Rectangle 412" width="14" height="5" transform="translate(65 183)"/>
    <rect id="Rectangle_413" data-name="Rectangle 413" width="13" height="4" transform="translate(79 50)"/>
    <rect id="Rectangle_414" data-name="Rectangle 414" width="13" height="5" transform="translate(79 183)"/>
    <rect id="Rectangle_415" data-name="Rectangle 415" width="13" height="4" transform="translate(92 50)"/>
    <rect id="Rectangle_416" data-name="Rectangle 416" width="13" height="5" transform="translate(92 183)"/>
    <rect id="Rectangle_417" data-name="Rectangle 417" width="14" height="4" transform="translate(105 50)"/>
    <rect id="Rectangle_418" data-name="Rectangle 418" width="14" height="5" transform="translate(105 183)"/>
    <rect id="Rectangle_419" data-name="Rectangle 419" width="13" height="4" transform="translate(119 50)"/>
    <rect id="Rectangle_420" data-name="Rectangle 420" width="13" height="5" transform="translate(119 183)"/>
    <rect id="Rectangle_421" data-name="Rectangle 421" width="13" height="4" transform="translate(132 50)"/>
    <rect id="Rectangle_422" data-name="Rectangle 422" width="13" height="5" transform="translate(132 183)"/>
    <rect id="Rectangle_423" data-name="Rectangle 423" width="14" height="4" transform="translate(145 50)"/>
    <rect id="Rectangle_424" data-name="Rectangle 424" width="14" height="5" transform="translate(145 183)"/>
    <rect id="Rectangle_425" data-name="Rectangle 425" width="13" height="4" transform="translate(159 50)"/>
    <rect id="Rectangle_426" data-name="Rectangle 426" width="13" height="5" transform="translate(159 183)"/>
    <rect id="Rectangle_427" data-name="Rectangle 427" width="13" height="4" transform="translate(172 50)"/>
    <rect id="Rectangle_428" data-name="Rectangle 428" width="13" height="5" transform="translate(172 183)"/>
    <rect id="Rectangle_429" data-name="Rectangle 429" width="4" height="14" transform="translate(50 65)"/>
    <rect id="Rectangle_430" data-name="Rectangle 430" width="4" height="13" transform="translate(50 79)"/>
    <rect id="Rectangle_431" data-name="Rectangle 431" width="4" height="13" transform="translate(50 92)"/>
    <rect id="Rectangle_432" data-name="Rectangle 432" width="4" height="14" transform="translate(50 105)"/>
    <rect id="Rectangle_433" data-name="Rectangle 433" width="4" height="13" transform="translate(50 119)"/>
    <rect id="Rectangle_434" data-name="Rectangle 434" width="4" height="13" transform="translate(50 132)"/>
    <rect id="Rectangle_435" data-name="Rectangle 435" width="4" height="14" transform="translate(50 145)"/>
    <rect id="Rectangle_436" data-name="Rectangle 436" width="4" height="13" transform="translate(50 159)"/>
    <rect id="Rectangle_437" data-name="Rectangle 437" width="4" height="13" transform="translate(50 172)"/>
    <rect id="Rectangle_438" data-name="Rectangle 438" width="5" height="13" transform="translate(183 52)"/>
    <rect id="Rectangle_439" data-name="Rectangle 439" width="5" height="14" transform="translate(183 65)"/>
    <rect id="Rectangle_440" data-name="Rectangle 440" width="5" height="13" transform="translate(183 79)"/>
    <rect id="Rectangle_441" data-name="Rectangle 441" width="5" height="13" transform="translate(183 92)"/>
    <rect id="Rectangle_442" data-name="Rectangle 442" width="5" height="14" transform="translate(183 105)"/>
    <rect id="Rectangle_443" data-name="Rectangle 443" width="5" height="13" transform="translate(183 119)"/>
    <rect id="Rectangle_444" data-name="Rectangle 444" width="5" height="13" transform="translate(183 132)"/>
    <rect id="Rectangle_445" data-name="Rectangle 445" width="5" height="14" transform="translate(183 145)"/>
    <rect id="Rectangle_446" data-name="Rectangle 446" width="5" height="13" transform="translate(183 159)"/>
    <rect id="Rectangle_447" data-name="Rectangle 447" width="5" height="13" transform="translate(63 52)"/>
    <rect id="Rectangle_448" data-name="Rectangle 448" width="4" height="13" transform="translate(170 52)"/>
    <rect id="Rectangle_449" data-name="Rectangle 449" width="4" height="14" transform="translate(77 65)"/>
    <rect id="Rectangle_450" data-name="Rectangle 450" width="4" height="14" transform="translate(90 65)"/>
    <rect id="Rectangle_451" data-name="Rectangle 451" width="4" height="14" transform="translate(157 65)"/>
    <rect id="Rectangle_452" data-name="Rectangle 452" width="5" height="13" transform="translate(63 79)"/>
    <rect id="Rectangle_453" data-name="Rectangle 453" width="4" height="13" transform="translate(90 79)"/>
    <rect id="Rectangle_454" data-name="Rectangle 454" width="5" height="13" transform="translate(103 79)"/>
    <rect id="Rectangle_455" data-name="Rectangle 455" width="4" height="13" transform="translate(117 79)"/>
    <rect id="Rectangle_456" data-name="Rectangle 456" width="4" height="13" transform="translate(130 79)"/>
    <rect id="Rectangle_457" data-name="Rectangle 457" width="4" height="13" transform="translate(90 92)"/>
    <rect id="Rectangle_458" data-name="Rectangle 458" width="5" height="13" transform="translate(103 92)"/>
    <rect id="Rectangle_459" data-name="Rectangle 459" width="4" height="13" transform="translate(130 92)"/>
    <rect id="Rectangle_460" data-name="Rectangle 460" width="4" height="13" transform="translate(157 92)"/>
    <rect id="Rectangle_461" data-name="Rectangle 461" width="5" height="14" transform="translate(63 105)"/>
    <rect id="Rectangle_462" data-name="Rectangle 462" width="4" height="14" transform="translate(90 105)"/>
    <rect id="Rectangle_463" data-name="Rectangle 463" width="4" height="14" transform="translate(117 105)"/>
    <rect id="Rectangle_464" data-name="Rectangle 464" width="5" height="14" transform="translate(143 105)"/>
    <rect id="Rectangle_465" data-name="Rectangle 465" width="4" height="14" transform="translate(157 105)"/>
    <rect id="Rectangle_466" data-name="Rectangle 466" width="5" height="13" transform="translate(63 119)"/>
    <rect id="Rectangle_467" data-name="Rectangle 467" width="4" height="13" transform="translate(77 119)"/>
    <rect id="Rectangle_468" data-name="Rectangle 468" width="4" height="13" transform="translate(90 119)"/>
    <rect id="Rectangle_469" data-name="Rectangle 469" width="4" height="13" transform="translate(117 119)"/>
    <rect id="Rectangle_470" data-name="Rectangle 470" width="4" height="13" transform="translate(130 119)"/>
    <rect id="Rectangle_471" data-name="Rectangle 471" width="5" height="13" transform="translate(143 119)"/>
    <rect id="Rectangle_472" data-name="Rectangle 472" width="4" height="13" transform="translate(170 119)"/>
    <rect id="Rectangle_473" data-name="Rectangle 473" width="5" height="13" transform="translate(63 132)"/>
    <rect id="Rectangle_474" data-name="Rectangle 474" width="4" height="13" transform="translate(90 132)"/>
    <rect id="Rectangle_475" data-name="Rectangle 475" width="4" height="13" transform="translate(117 132)"/>
    <rect id="Rectangle_476" data-name="Rectangle 476" width="5" height="13" transform="translate(143 132)"/>
    <rect id="Rectangle_477" data-name="Rectangle 477" width="4" height="13" transform="translate(170 132)"/>
    <rect id="Rectangle_478" data-name="Rectangle 478" width="4" height="14" transform="translate(90 145)"/>
    <rect id="Rectangle_479" data-name="Rectangle 479" width="4" height="14" transform="translate(130 145)"/>
    <rect id="Rectangle_480" data-name="Rectangle 480" width="4" height="14" transform="translate(157 145)"/>
    <rect id="Rectangle_481" data-name="Rectangle 481" width="5" height="13" transform="translate(63 159)"/>
    <rect id="Rectangle_482" data-name="Rectangle 482" width="5" height="13" transform="translate(103 159)"/>
    <rect id="Rectangle_483" data-name="Rectangle 483" width="4" height="13" transform="translate(170 159)"/>
    <rect id="Rectangle_484" data-name="Rectangle 484" width="5" height="13" transform="translate(63 172)"/>
    <rect id="Rectangle_485" data-name="Rectangle 485" width="13" height="5" transform="translate(79 63)"/>
    <rect id="Rectangle_486" data-name="Rectangle 486" width="13" height="5" transform="translate(92 63)"/>
    <rect id="Rectangle_487" data-name="Rectangle 487" width="14" height="5" transform="translate(105 63)"/>
    <rect id="Rectangle_488" data-name="Rectangle 488" width="13" height="5" transform="translate(119 63)"/>
    <rect id="Rectangle_489" data-name="Rectangle 489" width="13" height="5" transform="translate(132 63)"/>
    <rect id="Rectangle_490" data-name="Rectangle 490" width="14" height="4" transform="translate(65 77)"/>
    <rect id="Rectangle_491" data-name="Rectangle 491" width="14" height="4" transform="translate(105 77)"/>
    <rect id="Rectangle_492" data-name="Rectangle 492" width="13" height="4" transform="translate(132 77)"/>
    <rect id="Rectangle_493" data-name="Rectangle 493" width="14" height="4" transform="translate(145 77)"/>
    <rect id="Rectangle_494" data-name="Rectangle 494" width="13" height="4" transform="translate(159 77)"/>
    <rect id="Rectangle_495" data-name="Rectangle 495" width="13" height="4" transform="translate(172 77)"/>
    <rect id="Rectangle_496" data-name="Rectangle 496" width="14" height="4" transform="translate(65 90)"/>
    <rect id="Rectangle_497" data-name="Rectangle 497" width="14" height="4" transform="translate(145 90)"/>
    <rect id="Rectangle_498" data-name="Rectangle 498" width="13" height="4" transform="translate(159 90)"/>
    <rect id="Rectangle_499" data-name="Rectangle 499" width="13" height="5" transform="translate(52 103)"/>
    <rect id="Rectangle_500" data-name="Rectangle 500" width="14" height="5" transform="translate(65 103)"/>
    <rect id="Rectangle_501" data-name="Rectangle 501" width="14" height="5" transform="translate(105 103)"/>
    <rect id="Rectangle_502" data-name="Rectangle 502" width="13" height="5" transform="translate(132 103)"/>
    <rect id="Rectangle_503" data-name="Rectangle 503" width="13" height="5" transform="translate(172 103)"/>
    <rect id="Rectangle_504" data-name="Rectangle 504" width="13" height="4" transform="translate(79 117)"/>
    <rect id="Rectangle_505" data-name="Rectangle 505" width="13" height="4" transform="translate(92 117)"/>
    <rect id="Rectangle_506" data-name="Rectangle 506" width="13" height="4" transform="translate(119 117)"/>
    <rect id="Rectangle_507" data-name="Rectangle 507" width="13" height="4" transform="translate(159 117)"/>
    <rect id="Rectangle_508" data-name="Rectangle 508" width="14" height="4" transform="translate(105 130)"/>
    <rect id="Rectangle_509" data-name="Rectangle 509" width="13" height="4" transform="translate(132 130)"/>
    <rect id="Rectangle_510" data-name="Rectangle 510" width="14" height="4" transform="translate(145 130)"/>
    <rect id="Rectangle_511" data-name="Rectangle 511" width="14" height="5" transform="translate(65 143)"/>
    <rect id="Rectangle_512" data-name="Rectangle 512" width="13" height="5" transform="translate(92 143)"/>
    <rect id="Rectangle_513" data-name="Rectangle 513" width="13" height="5" transform="translate(119 143)"/>
    <rect id="Rectangle_514" data-name="Rectangle 514" width="13" height="5" transform="translate(159 143)"/>
    <rect id="Rectangle_515" data-name="Rectangle 515" width="14" height="4" transform="translate(65 157)"/>
    <rect id="Rectangle_516" data-name="Rectangle 516" width="13" height="4" transform="translate(79 157)"/>
    <rect id="Rectangle_517" data-name="Rectangle 517" width="14" height="4" transform="translate(105 157)"/>
    <rect id="Rectangle_518" data-name="Rectangle 518" width="13" height="4" transform="translate(119 157)"/>
    <rect id="Rectangle_519" data-name="Rectangle 519" width="13" height="4" transform="translate(132 157)"/>
    <rect id="Rectangle_520" data-name="Rectangle 520" width="14" height="4" transform="translate(145 157)"/>
    <rect id="Rectangle_521" data-name="Rectangle 521" width="13" height="4" transform="translate(172 157)"/>
    <rect id="Rectangle_522" data-name="Rectangle 522" width="13" height="4" transform="translate(79 170)"/>
    <rect id="Rectangle_523" data-name="Rectangle 523" width="13" height="4" transform="translate(92 170)"/>
    <rect id="Rectangle_524" data-name="Rectangle 524" width="13" height="4" transform="translate(119 170)"/>
    <rect id="Rectangle_525" data-name="Rectangle 525" width="13" height="4" transform="translate(132 170)"/>
    <rect id="Rectangle_526" data-name="Rectangle 526" width="14" height="4" transform="translate(145 170)"/>
    <rect id="Rectangle_527" data-name="Rectangle 527" width="13" height="4" transform="translate(159 170)"/>
  </g>
</svg>
