<?xml version="1.0" encoding="UTF-8" ?>
<!DOCTYPE svg PUBLIC "-//W3C//DTD SVG 1.1//EN" "http://www.w3.org/Graphics/SVG/1.1/DTD/svg11.dtd">
<svg width="1350pt" height="196pt" viewBox="0 0 1350 196" version="1.1" xmlns="http://www.w3.org/2000/svg">
<g id="#008f96ff">
<path fill="#008f96" opacity="1.00" d=" M 406.17 29.23 C 426.65 12.22 453.56 3.95 480.01 4.25 C 497.58 3.84 515.55 7.27 530.96 15.97 C 540.22 21.16 548.24 28.65 553.58 37.87 C 541.36 47.58 529.22 57.39 516.96 67.05 C 511.21 57.70 502.06 50.27 491.27 47.72 C 475.42 43.92 457.71 46.72 444.47 56.47 C 432.32 65.31 424.47 79.23 421.78 93.89 C 419.98 104.22 419.59 115.34 423.95 125.12 C 428.74 136.13 439.44 143.93 451.09 146.29 C 464.62 149.09 479.34 147.47 491.35 140.35 C 497.47 136.89 502.57 132.00 507.43 126.98 C 517.39 136.76 527.34 146.53 537.26 156.36 C 524.45 172.71 505.36 183.63 484.96 187.20 C 462.83 191.18 439.33 190.62 418.13 182.60 C 401.50 176.31 386.68 164.52 378.35 148.64 C 369.13 131.82 368.00 111.82 370.74 93.17 C 374.22 68.49 386.85 45.09 406.17 29.23 Z" />
<path fill="#008f96" opacity="1.00" d=" M 1047.88 4.40 C 1073.07 3.25 1099.48 6.32 1121.58 19.32 C 1115.59 31.99 1109.33 44.54 1103.17 57.13 C 1088.27 47.72 1070.52 43.42 1053.00 43.51 C 1044.40 43.82 1035.27 44.93 1028.15 50.19 C 1024.47 52.83 1021.92 57.28 1022.51 61.90 C 1022.80 66.47 1026.78 69.58 1030.69 71.22 C 1045.21 77.54 1061.07 79.77 1075.88 85.28 C 1086.68 88.78 1096.85 95.21 1103.26 104.74 C 1109.00 113.60 1109.53 124.72 1108.21 134.90 C 1106.30 149.89 1097.49 163.52 1085.33 172.30 C 1070.76 182.94 1052.72 187.77 1034.94 189.13 C 1019.61 190.17 1004.12 189.34 989.08 186.18 C 974.95 183.09 960.91 178.51 948.71 170.59 C 955.05 157.74 961.98 145.19 968.60 132.48 C 986.46 144.04 1007.69 150.28 1028.97 150.20 C 1036.62 149.92 1044.63 149.23 1051.39 145.32 C 1055.66 142.87 1059.06 138.12 1058.14 133.01 C 1057.43 128.33 1053.14 125.46 1049.09 123.82 C 1034.90 117.85 1019.54 115.44 1005.20 109.89 C 994.13 106.22 983.72 99.54 977.30 89.63 C 971.12 79.61 970.91 67.13 972.91 55.86 C 975.60 41.25 984.79 28.32 996.98 20.03 C 1011.89 9.82 1030.03 5.45 1047.88 4.40 Z" />
<path fill="#008f96" opacity="1.00" d=" M 10.02 185.99 C 21.96 126.58 33.69 67.14 45.65 7.73 C 77.41 7.78 109.16 7.72 140.92 7.77 C 155.87 8.37 171.73 10.77 183.93 20.10 C 191.83 25.98 196.77 35.38 197.44 45.18 C 198.61 57.70 195.05 70.99 186.18 80.17 C 180.73 86.33 173.65 90.77 166.20 94.13 C 177.43 98.87 186.77 108.82 188.98 121.04 C 190.94 132.34 189.30 144.44 183.77 154.56 C 178.22 164.57 168.69 171.70 158.44 176.40 C 143.65 183.30 127.20 185.72 111.01 186.01 C 77.35 185.98 43.68 186.02 10.02 185.99 M 88.36 44.24 C 86.12 55.67 83.78 67.09 81.53 78.52 C 93.34 78.47 105.16 78.53 116.98 78.49 C 123.57 78.31 130.48 77.71 136.25 74.23 C 143.56 70.02 146.79 60.07 143.54 52.34 C 140.44 46.13 132.72 44.72 126.45 44.37 C 113.76 44.09 101.05 44.34 88.36 44.24 M 67.28 149.53 C 81.52 149.44 95.75 149.55 109.99 149.48 C 117.34 149.31 125.12 148.54 131.39 144.34 C 138.84 139.69 141.59 129.05 137.74 121.27 C 134.31 115.57 127.12 113.91 120.94 113.56 C 105.46 113.36 89.98 113.67 74.50 113.40 C 71.87 125.40 69.70 137.49 67.28 149.53 Z" />
<path fill="#008f96" opacity="1.00" d=" M 213.64 47.99 C 216.26 34.56 219.04 21.16 221.79 7.76 C 274.99 7.74 328.20 7.77 381.40 7.74 C 378.73 21.18 376.01 34.60 373.18 48.01 C 355.07 48.00 336.95 48.00 318.84 48.01 C 309.63 94.00 300.40 140.00 291.16 186.00 C 274.28 186.00 257.40 186.01 240.53 185.99 C 249.82 140.01 258.97 94.00 268.23 48.01 C 250.03 47.98 231.83 48.02 213.64 47.99 Z" />
<path fill="#008f96" opacity="1.00" d=" M 584.97 7.76 C 612.34 7.74 639.70 7.76 667.07 7.75 C 687.07 8.32 707.70 12.87 724.10 24.85 C 737.62 34.55 747.05 49.57 750.16 65.90 C 752.95 80.77 751.91 96.21 748.43 110.88 C 743.70 130.40 732.57 148.28 717.10 161.10 C 695.72 178.81 667.42 186.34 640.00 186.00 C 609.80 185.99 579.60 186.00 549.40 186.00 C 561.15 126.56 573.12 67.17 584.97 7.76 M 627.43 48.25 C 620.97 80.66 614.59 113.08 608.18 145.49 C 620.13 145.51 632.08 145.48 644.02 145.51 C 659.08 145.44 674.45 139.99 684.95 128.94 C 696.83 116.64 701.41 98.80 700.50 82.04 C 700.01 72.90 696.31 63.63 689.18 57.68 C 681.37 51.11 670.96 48.67 660.97 48.26 C 649.79 48.22 638.61 48.26 627.43 48.25 Z" />
<path fill="#008f96" opacity="1.00" d=" M 735.31 185.99 C 773.45 126.58 811.40 67.03 849.69 7.71 C 866.24 7.80 882.80 7.74 899.36 7.73 C 913.74 67.14 928.08 126.56 942.36 186.00 C 925.60 186.00 908.83 185.99 892.07 186.00 C 889.58 174.52 887.33 162.99 884.92 151.50 C 859.70 151.55 834.48 151.41 809.27 151.57 C 802.53 163.09 795.63 174.53 788.81 186.01 C 770.98 185.99 753.15 186.01 735.31 185.99 M 831.72 113.99 C 846.89 114.00 862.06 114.01 877.23 113.99 C 873.27 94.97 869.36 75.94 865.41 56.91 C 854.11 75.90 842.92 94.95 831.72 113.99 Z" />
<path fill="#008f96" opacity="1.00" d=" M 1120.96 185.99 C 1132.94 126.59 1144.65 67.14 1156.61 7.74 C 1173.47 7.77 1190.34 7.74 1207.21 7.75 C 1202.82 29.92 1198.41 52.08 1194.04 74.25 C 1216.72 74.25 1239.40 74.26 1262.09 74.24 C 1266.51 52.09 1270.90 29.93 1275.28 7.76 C 1292.14 7.76 1309.01 7.71 1325.88 7.79 C 1314.07 67.20 1302.14 126.60 1290.26 186.00 C 1273.40 186.00 1256.53 186.00 1239.67 186.00 C 1244.23 162.91 1248.83 139.83 1253.41 116.74 C 1230.71 116.76 1208.02 116.74 1185.34 116.75 C 1180.75 139.82 1176.18 162.90 1171.60 185.98 C 1154.72 186.03 1137.84 186.00 1120.96 185.99 Z" />
</g>
</svg>
